# xmcd
#
# Track frame offsets:
#	150
#	15684
#	31613
#	51933
#
# Disc length: 928 seconds
#
# Revision: 0
# Processed by: cddbd v1.4PL0 Copyright (c) Steve Scherf et al.
# Submitted via: EasyCDDAExtractor 4.6.0.1
#
DISCID=25039e04
DTITLE=Sista Lova - Représentante
DYEAR=2002
DGENRE=Ragga
TTITLE0=rub a dub
TTITLE1=gun (feat. Falo)
TTITLE2=innocent
TTITLE3=représentante
EXTD=Copyright © 1998 MCA Records. Never before released material.
EXTT0=
EXTT1=
EXTT2=
EXTT3=
PLAYORDER=
